<?xml version="1.0" encoding="UTF-8" standalone="no"?>
<!-- Created with Inkscape (http://www.inkscape.org/) -->

<svg
   width="150mm"
   height="150mm"
   viewBox="0 0 150 150"
   version="1.1"
   id="svg5"
   inkscape:export-filename="x.svg"
   inkscape:export-xdpi="96"
   inkscape:export-ydpi="96"
   inkscape:version="1.2.1 (9c6d41e, 2022-07-14)"
   sodipodi:docname="o.svg"
   xmlns:inkscape="http://www.inkscape.org/namespaces/inkscape"
   xmlns:sodipodi="http://sodipodi.sourceforge.net/DTD/sodipodi-0.dtd"
   xmlns="http://www.w3.org/2000/svg"
   xmlns:svg="http://www.w3.org/2000/svg">
  <sodipodi:namedview
     id="namedview7"
     pagecolor="#ffffff"
     bordercolor="#000000"
     borderopacity="0.25"
     inkscape:showpageshadow="2"
     inkscape:pageopacity="0.0"
     inkscape:pagecheckerboard="0"
     inkscape:deskcolor="#d1d1d1"
     inkscape:document-units="mm"
     showgrid="false"
     inkscape:zoom="0.67515155"
     inkscape:cx="83.684915"
     inkscape:cy="299.93266"
     inkscape:window-width="1429"
     inkscape:window-height="697"
     inkscape:window-x="0"
     inkscape:window-y="25"
     inkscape:window-maximized="0"
     inkscape:current-layer="layer1" />
  <defs
     id="defs2">
    <inkscape:path-effect
       effect="spiro"
       id="path-effect562"
       is_visible="true"
       lpeversion="1" />
    <inkscape:path-effect
       effect="powerstroke"
       id="path-effect556"
       is_visible="true"
       lpeversion="1"
       offset_points="1.8564836,6.2074153"
       not_jump="true"
       sort_points="true"
       interpolator_type="CentripetalCatmullRom"
       interpolator_beta="0.75"
       start_linecap_type="round"
       linejoin_type="spiro"
       miter_limit="4"
       scale_width="1"
       end_linecap_type="round" />
    <inkscape:path-effect
       effect="simplify"
       id="path-effect554"
       is_visible="true"
       lpeversion="1"
       steps="1"
       threshold="0.0047745358"
       smooth_angles="0"
       helper_size="0"
       simplify_individual_paths="false"
       simplify_just_coalesce="false"
       step="1" />
    <inkscape:path-effect
       effect="powerstroke"
       id="path-effect549"
       is_visible="true"
       lpeversion="1"
       offset_points="1.2194345,5.8783098"
       not_jump="true"
       sort_points="true"
       interpolator_type="CentripetalCatmullRom"
       interpolator_beta="0.75"
       start_linecap_type="round"
       linejoin_type="spiro"
       miter_limit="4"
       scale_width="1"
       end_linecap_type="round" />
    <inkscape:path-effect
       effect="simplify"
       id="path-effect547"
       is_visible="true"
       lpeversion="1"
       steps="1"
       threshold="0.0047745358"
       smooth_angles="0"
       helper_size="0"
       simplify_individual_paths="false"
       simplify_just_coalesce="false"
       step="1" />
    <inkscape:path-effect
       effect="powerstroke"
       id="path-effect476"
       is_visible="true"
       lpeversion="1"
       offset_points="1.2289143,5.8783098"
       not_jump="true"
       sort_points="true"
       interpolator_type="CentripetalCatmullRom"
       interpolator_beta="0.75"
       start_linecap_type="round"
       linejoin_type="spiro"
       miter_limit="4"
       scale_width="1"
       end_linecap_type="round" />
    <inkscape:path-effect
       effect="simplify"
       id="path-effect474"
       is_visible="true"
       lpeversion="1"
       steps="1"
       threshold="0.0047745358"
       smooth_angles="0"
       helper_size="0"
       simplify_individual_paths="false"
       simplify_just_coalesce="false"
       step="1" />
    <inkscape:path-effect
       effect="powerstroke"
       id="path-effect469"
       is_visible="true"
       lpeversion="1"
       offset_points="1.5784634,5.8783098"
       not_jump="true"
       sort_points="true"
       interpolator_type="CentripetalCatmullRom"
       interpolator_beta="0.75"
       start_linecap_type="round"
       linejoin_type="spiro"
       miter_limit="4"
       scale_width="1"
       end_linecap_type="round" />
    <inkscape:path-effect
       effect="simplify"
       id="path-effect467"
       is_visible="true"
       lpeversion="1"
       steps="1"
       threshold="0.0047745358"
       smooth_angles="0"
       helper_size="0"
       simplify_individual_paths="false"
       simplify_just_coalesce="false"
       step="1" />
    <inkscape:path-effect
       effect="powerstroke"
       id="path-effect462"
       is_visible="true"
       lpeversion="1"
       offset_points="1.978425,5.8783098"
       not_jump="true"
       sort_points="true"
       interpolator_type="CentripetalCatmullRom"
       interpolator_beta="0.75"
       start_linecap_type="round"
       linejoin_type="spiro"
       miter_limit="4"
       scale_width="1"
       end_linecap_type="round" />
    <inkscape:path-effect
       effect="simplify"
       id="path-effect460"
       is_visible="true"
       lpeversion="1"
       steps="1"
       threshold="0.0047745358"
       smooth_angles="0"
       helper_size="0"
       simplify_individual_paths="false"
       simplify_just_coalesce="false"
       step="1" />
    <inkscape:path-effect
       effect="powerstroke"
       id="path-effect455"
       is_visible="true"
       lpeversion="1"
       offset_points="2.4550163,5.8783098"
       not_jump="true"
       sort_points="true"
       interpolator_type="CentripetalCatmullRom"
       interpolator_beta="0.75"
       start_linecap_type="round"
       linejoin_type="spiro"
       miter_limit="4"
       scale_width="1"
       end_linecap_type="round" />
    <inkscape:path-effect
       effect="simplify"
       id="path-effect453"
       is_visible="true"
       lpeversion="1"
       steps="1"
       threshold="0.0047745358"
       smooth_angles="0"
       helper_size="0"
       simplify_individual_paths="false"
       simplify_just_coalesce="false"
       step="1" />
    <inkscape:path-effect
       effect="powerstroke"
       id="path-effect448"
       is_visible="true"
       lpeversion="1"
       offset_points="1.7717865,5.8783098"
       not_jump="true"
       sort_points="true"
       interpolator_type="CentripetalCatmullRom"
       interpolator_beta="0.75"
       start_linecap_type="round"
       linejoin_type="spiro"
       miter_limit="4"
       scale_width="1"
       end_linecap_type="round" />
    <inkscape:path-effect
       effect="simplify"
       id="path-effect446"
       is_visible="true"
       lpeversion="1"
       steps="1"
       threshold="0.0047745358"
       smooth_angles="0"
       helper_size="0"
       simplify_individual_paths="false"
       simplify_just_coalesce="false"
       step="1" />
  </defs>
  <g
     inkscape:label="Livello 1"
     inkscape:groupmode="layer"
     id="layer1">
    <path
       d="m 56.160852,15.476329 c -0.818196,0.169492 -1.904032,0.272655 -3.60188,0.173425 -1.504763,-0.08794 -2.662481,-0.256626 -4.927026,-0.515959 -1.606257,-0.183946 -3.851202,-0.418372 -6.167379,-0.336607 -2.112417,0.07457 -4.625306,0.413768 -7.25278,1.480733 -0.285908,0.116102 -0.562793,0.253379 -0.828287,0.410656 -1.548826,0.917518 -2.920008,2.056336 -4.127318,3.371266 -1.107532,1.206258 -2.04712,2.52751 -2.857007,3.908879 -1.063315,1.813625 -1.893917,3.714793 -2.593666,5.578024 -0.258343,0.687895 -0.501953,1.378749 -0.740833,2.083083 -0.03115,0.09185 -0.06015,0.18442 -0.08696,0.277629 -1.43756,4.997189 -2.230311,10.517796 -2.277007,16.697784 -0.03923,5.192663 0.448104,10.555918 1.34571,16.182043 0.02504,0.15696 0.0561,0.312906 0.09312,0.467482 0.409659,1.710887 0.775868,3.756294 1.307171,6.109012 0.474049,2.099184 1.138089,4.6454 2.272765,7.180751 0.175569,0.392297 0.391459,0.765382 0.644096,1.113083 0.543737,0.748335 0.990761,1.647505 1.355077,2.792061 0.354023,1.112221 0.61075,2.390055 0.82814,3.955333 0.03049,0.219526 0.07272,0.437274 0.126492,0.652284 2.918569,11.668882 7.611565,23.408599 14.222692,34.486509 1.671077,2.84671 3.849603,5.91988 6.65842,8.5343 1.396307,1.29967 2.979026,2.51477 4.764932,3.53116 1.719194,0.97842 3.619068,1.76806 5.700026,2.26775 3.385749,0.98512 6.828262,1.23429 10.162763,0.94537 3.278386,-0.28405 6.461755,-1.08827 9.427319,-2.2327 0.204725,-0.0615 0.497971,-0.1228 0.942094,-0.17072 0.543783,-0.0587 1.122553,-0.0811 1.992485,-0.11421 0.785084,-0.0299 1.840297,-0.0696 2.932005,-0.20137 1.008799,-0.12173 2.143846,-0.32979 3.342353,-0.72824 9.729605,-2.19764 19.028845,-6.47243 27.590815,-10.65196 1.2433,-0.39922 2.32606,-0.96719 3.25953,-1.5995 1.09418,-0.74116 1.98762,-1.57376 2.70248,-2.32375 0.70832,-0.74311 1.33366,-1.50544 1.817,-2.10017 0.53597,-0.65948 0.88695,-1.09847 1.24931,-1.50386 0.0952,-0.10654 0.18675,-0.21633 0.2744,-0.32918 4.55913,-5.86994 7.12365,-12.70515 8.13434,-19.582502 1.02328,-6.963024 0.47449,-14.071371 -1.2758,-20.601193 -0.63828,-2.477056 -1.43533,-5.107508 -2.57077,-7.679323 -1.1545,-2.614974 -2.67073,-5.197262 -4.74953,-7.526832 -5.5472,-6.773351 -11.64215,-13.14813 -17.07381,-18.794298 -0.0229,-0.02384 -0.0461,-0.0475 -0.0694,-0.07097 -4.2135,-4.242025 -8.734402,-8.208014 -13.662762,-11.550962 -5.21474,-3.537202 -10.791613,-6.311314 -16.798812,-7.990994 -4.325331,-1.253467 -8.60472,-2.721646 -12.71669,-3.749372 -0.22759,-0.05688 -0.458237,-0.100821 -0.690799,-0.131597 -0.506521,-0.06703 -0.737413,-0.09972 -0.78009,-0.108191 -0.05269,-0.01045 0.191569,0.04157 0.475618,0.185616 a 6.2074153,6.2074153 90 0 0 -5.614898,11.072532 c 0.935404,0.474344 1.859981,0.748042 2.723142,0.919302 0.445479,0.08839 0.889911,0.150509 1.219091,0.193425 3.393284,0.871158 7.324499,2.209177 11.959614,3.551358 0.01958,0.0057 0.03918,0.01124 0.05882,0.01672 4.506394,1.256929 8.880123,3.387994 13.195911,6.31543 4.076378,2.765042 7.972892,6.152052 11.789134,9.990917 5.477713,5.694244 11.265293,11.759588 16.466223,18.121226 0.0653,0.07985 0.13254,0.158056 0.20172,0.234552 1.05741,1.169309 1.94321,2.598861 2.71028,4.336293 0.75636,1.713184 1.35751,3.631543 1.91286,5.790195 0.006,0.0215 0.0112,0.04297 0.0169,0.0644 1.3516,5.029497 1.75077,10.437279 0.99108,15.606676 -0.73708,5.015566 -2.54935,9.712318 -5.54175,13.623688 -0.55161,0.62896 -1.07602,1.28505 -1.46775,1.76704 -0.47517,0.58468 -0.83083,1.00946 -1.16916,1.36442 -0.32848,0.34461 -0.54644,0.52127 -0.67845,0.61069 -0.11287,0.0765 -0.12966,0.0668 -0.0791,0.0539 l -1.19814,0.44005 c -8.66726,4.24016 -16.97916,8.03674 -25.692657,10.00563 -0.260446,0.0588 -0.516845,0.13445 -0.767556,0.22632 -0.199182,0.073 -0.503067,0.14951 -0.980038,0.20706 -0.514375,0.0621 -1.083549,0.0892 -1.917016,0.12095 -0.756071,0.0288 -1.795089,0.0628 -2.851917,0.17686 -1.095625,0.1182 -2.366063,0.3351 -3.702364,0.79068 -0.08736,0.0298 -0.17405,0.0615 -0.259998,0.0952 -2.056971,0.80533 -4.137992,1.31822 -6.147028,1.49229 -2.029037,0.17581 -3.948704,0.004 -5.721033,-0.52638 -0.128449,-0.0384 -0.258112,-0.0727 -0.38878,-0.10276 -0.881965,-0.2028 -1.723713,-0.54037 -2.540669,-1.00531 -0.830659,-0.47274 -1.646723,-1.08381 -2.44708,-1.82878 -1.648502,-1.53441 -3.122992,-3.53599 -4.420065,-5.74808 -0.0083,-0.0141 -0.01663,-0.0282 -0.02503,-0.0423 C 47.658172,105.30212 43.438647,94.800989 40.794977,84.354469 40.53067,82.530116 40.16104,80.608097 39.548641,78.684148 38.927537,76.73285 38.065157,74.80674 36.842165,72.983089 c -0.525316,-1.291438 -0.92029,-2.736478 -1.285573,-4.354027 -0.426879,-1.890309 -0.796594,-3.941368 -1.28626,-6.023928 -0.791886,-5.024753 -1.187585,-9.613114 -1.155148,-13.906089 0.03853,-5.099645 0.681856,-9.444278 1.754182,-13.221802 0.190572,-0.558455 0.373733,-1.074021 0.558392,-1.565726 0.548839,-1.461436 1.09392,-2.661894 1.681264,-3.663685 0.440134,-0.750709 0.872713,-1.334903 1.29202,-1.791587 0.318218,-0.346584 0.630186,-0.621331 0.936292,-0.841613 0.776117,-0.252657 1.61847,-0.37692 2.565227,-0.410342 1.310678,-0.04627 2.753817,0.08472 4.316886,0.26372 1.932436,0.2213 3.655304,0.460882 5.615182,0.575426 2.54952,0.149005 4.752187,0.02306 6.844533,-0.410375 a 6.2074153,6.2074153 90 0 0 -2.51831,-12.156732 z"
       id="path-1"
       inkscape:path-effect="#path-effect554;#path-effect556"
       inkscape:original-d="m 57.420007,21.554695 c -5.937807,1.71445 -18.046135,-3.444199 -23.059364,2.079456 -8.503106,9.368859 -8.074081,26.216874 -6.588389,37.846106 0.319711,2.502527 2.191889,10.625967 2.88242,12.89263 0.59967,1.968409 3.030867,4.942461 3.294195,7.070151 1.386708,11.204567 11.265126,35.499452 19.353394,43.668582 3.232865,3.26519 7.084275,4.79434 11.529682,5.40658 5.39024,0.74238 8.69402,-0.43163 13.588554,-2.07946 1.202466,-0.40482 4.697004,-0.20848 5.76484,-0.41588 10.489754,-2.03743 19.756221,-6.02591 29.235971,-10.81317 0.93497,-0.47216 2.10544,-0.5414 2.88242,-1.24768 13.57519,-12.33982 14.45498,-30.921559 7.82371,-46.995709 C 122.28265,64.494526 112.22788,54.086064 111.77421,53.578323 103.75447,44.602718 93.77436,34.320253 82.538242,29.456629 76.83297,26.987066 70.590071,25.572717 64.831945,23.634151 63.607757,23.222008 62.271956,23.381088 61.125976,22.802369"
       style="fill:#000000;fill-rule:nonzero;stroke:none;stroke-width:1.05599" />
    <path
       style="fill:#000000;stroke:none"
       d="m -142.1903,198.47396 383.61758,-78.5009"
       id="path560"
       inkscape:path-effect="#path-effect562"
       inkscape:original-d="m -142.1903,198.47396 383.61758,-78.5009" />
  </g>
</svg>
