<?xml version="1.0" encoding="UTF-8" standalone="no"?>
<!-- Created with Inkscape (http://www.inkscape.org/) -->

<svg
   width="150mm"
   height="150mm"
   viewBox="0 0 150 150"
   version="1.1"
   id="svg5"
   inkscape:export-filename="b.svg"
   inkscape:export-xdpi="96"
   inkscape:export-ydpi="96"
   xmlns:inkscape="http://www.inkscape.org/namespaces/inkscape"
   xmlns:sodipodi="http://sodipodi.sourceforge.net/DTD/sodipodi-0.dtd"
   xmlns="http://www.w3.org/2000/svg"
   xmlns:svg="http://www.w3.org/2000/svg">
  <sodipodi:namedview
     id="namedview7"
     pagecolor="#ffffff"
     bordercolor="#000000"
     borderopacity="0.25"
     inkscape:showpageshadow="2"
     inkscape:pageopacity="0.0"
     inkscape:pagecheckerboard="0"
     inkscape:deskcolor="#d1d1d1"
     inkscape:document-units="mm"
     showgrid="false" />
  <defs
     id="defs2">
    <inkscape:path-effect
       effect="powerstroke"
       id="path-effect476"
       is_visible="true"
       lpeversion="1"
       offset_points="1.2289143,5.8783098"
       not_jump="true"
       sort_points="true"
       interpolator_type="CentripetalCatmullRom"
       interpolator_beta="0.75"
       start_linecap_type="round"
       linejoin_type="spiro"
       miter_limit="4"
       scale_width="1"
       end_linecap_type="round" />
    <inkscape:path-effect
       effect="simplify"
       id="path-effect474"
       is_visible="true"
       lpeversion="1"
       steps="1"
       threshold="0.0047745358"
       smooth_angles="0"
       helper_size="0"
       simplify_individual_paths="false"
       simplify_just_coalesce="false"
       step="1" />
    <inkscape:path-effect
       effect="powerstroke"
       id="path-effect469"
       is_visible="true"
       lpeversion="1"
       offset_points="1.5784634,5.8783098"
       not_jump="true"
       sort_points="true"
       interpolator_type="CentripetalCatmullRom"
       interpolator_beta="0.75"
       start_linecap_type="round"
       linejoin_type="spiro"
       miter_limit="4"
       scale_width="1"
       end_linecap_type="round" />
    <inkscape:path-effect
       effect="simplify"
       id="path-effect467"
       is_visible="true"
       lpeversion="1"
       steps="1"
       threshold="0.0047745358"
       smooth_angles="0"
       helper_size="0"
       simplify_individual_paths="false"
       simplify_just_coalesce="false"
       step="1" />
  </defs>
  <g
     inkscape:label="Livello 1"
     inkscape:groupmode="layer"
     id="layer1">
    <path
       d="m 25.102158,142.53874 c 1.244877,-0.5492 2.623559,-1.38605 3.980288,-2.70014 0.975268,-0.94461 1.794302,-1.99339 2.5297,-3.11359 0.624569,-0.95138 1.155979,-1.90371 1.639097,-2.77742 0.457306,-0.82702 0.821624,-1.49055 1.193249,-2.07637 0.03769,-0.0594 0.07432,-0.11951 0.109852,-0.18024 3.183078,-5.44021 6.705895,-10.75627 10.580345,-16.38569 2.745579,-3.98923 5.507573,-7.90789 8.253276,-11.89658 10.929999,-15.273861 25.744399,-31.944658 40.6589,-50.583481 5.19319,-6.393955 10.708425,-12.50937 16.470795,-18.880465 0.10005,-0.110622 0.19586,-0.225015 0.28721,-0.342925 2.39805,-3.095225 4.2857,-6.132774 6.11458,-8.675396 1.93673,-2.692574 3.65658,-4.677725 5.58884,-6.181691 0.0849,-0.04854 0.11081,-0.05655 0.0749,-0.0426 -0.11292,0.04385 -0.35393,0.106803 -0.67776,0.10837 a 5.8783098,5.8783098 90 0 0 -0.0569,-11.756482 c -1.06738,0.00516 -2.25317,0.1963723 -3.52148,0.6889335 -0.8824,0.3426901 -1.66513,0.7765731 -2.35429,1.2221142 -0.12032,0.077789 -0.23776,0.1599527 -0.35208,0.246323 -3.37654,2.5510533 -5.9515,5.6610113 -8.24535,8.8500643 -2.0727,2.881599 -3.88122,5.754744 -5.73194,8.16846 -5.68989,6.29126 -11.360967,12.581099 -16.73625,19.200444 -0.0089,0.01099 -0.01782,0.02202 -0.02666,0.03308 C 70.27962,63.71138 55.217032,80.650491 43.796091,96.610396 c -0.02101,0.02936 -0.04175,0.05892 -0.06222,0.08867 -2.704915,3.931007 -5.578819,8.009827 -8.283734,11.940837 -3.915636,5.68927 -7.608951,11.25199 -10.992849,17.02806 -0.58089,0.92466 -1.113468,1.90146 -1.494534,2.59061 -0.486413,0.87967 -0.825815,1.47703 -1.178629,2.01446 -0.385584,0.58734 -0.6714,0.91764 -0.881081,1.12073 -0.255682,0.24764 -0.436914,0.34037 -0.546269,0.38862 a 5.8783098,5.8783098 90 0 0 4.745386,10.75636 z"
       id="path-1"
       inkscape:path-effect="#path-effect467;#path-effect469"
       inkscape:original-d="m 22.729465,137.16056 c 0.914403,-0.65315 2.082274,-1.05065 2.743211,-1.95944 2.516772,-3.46056 4.360784,-7.3654 6.662084,-10.97284 C 35.895863,118.3325 46.102175,103.42489 49.76969,98.363718 57.547448,87.630412 65.962993,77.55214 74.458591,67.40462 84.610864,55.278294 94.148626,42.83245 105.0258,31.350986 c 3.66675,-3.870452 11.35629,-18.418704 16.85116,-18.418704"
       style="fill:#000000;fill-rule:nonzero;stroke:none" />
    <path
       d="m 17.340186,22.909367 c 3.556474,3.656121 7.448147,7.270106 14.587529,13.385165 4.284425,3.669717 9.632072,8.154621 14.266459,12.531406 0.03871,0.03656 0.07791,0.07258 0.117597,0.108076 3.54821,3.173108 6.984684,6.542791 10.404752,10.095679 3.725818,3.870511 7.362265,7.877956 11.805039,12.864063 6.041154,6.779959 14.254202,16.209926 22.484272,24.211602 0.07109,0.06911 0.143909,0.136418 0.218399,0.201847 9.704727,8.524315 16.658207,16.246005 27.246107,26.608375 0.55357,0.60061 1.10761,1.27089 1.79567,2.10218 0.69346,0.83782 1.50942,1.82197 2.40838,2.76943 0.93445,0.98485 2.02109,1.99881 3.30342,2.89628 1.21789,0.85238 2.57884,1.576 4.10825,2.08425 0.63942,0.31582 1.301,0.68174 1.96226,1.05043 1.23523,0.68874 1.97043,1.09815 2.89561,1.55628 a 5.8783098,5.8783098 90 0 0 5.21704,-10.53568 c -0.63348,-0.31369 -1.13385,-0.59003 -2.38731,-1.28893 -0.73695,-0.4109 -1.85345,-1.03405 -3.01519,-1.58066 -0.27444,-0.12912 -0.5585,-0.23683 -0.84956,-0.32212 -0.36546,-0.10709 -0.74901,-0.28694 -1.18993,-0.59553 -0.44044,-0.30825 -0.9302,-0.73898 -1.51603,-1.35641 -0.58587,-0.61747 -1.16226,-1.30617 -1.88021,-2.17359 -0.66293,-0.80092 -1.47368,-1.78791 -2.34136,-2.71796 -0.0611,-0.0655 -0.12375,-0.12965 -0.18782,-0.19232 C 116.76337,104.8003 109.06511,96.342986 99.096252,87.573882 91.284554,79.966761 83.473232,71.001644 77.299227,64.072585 72.825655,59.051915 69.070599,54.911254 65.186521,50.876336 61.634623,47.186498 58.003799,43.621289 54.20831,40.22375 49.318845,35.610758 43.686629,30.886679 39.575641,27.365515 32.588584,21.380927 28.986296,18.02088 25.767418,14.711815 a 5.8783098,5.8783098 90 0 0 -8.427232,8.197552 z"
       id="path-1-8"
       inkscape:path-effect="#path-effect474;#path-effect476"
       inkscape:original-d="m 21.553802,18.810591 c 3.195899,3.195899 4.647972,4.750108 8.229634,7.837747 11.574241,9.977793 23.250509,19.760741 33.70231,30.959098 9.396092,10.067242 18.25698,20.632229 27.824,30.567212 4.37701,4.545356 9.268084,8.48431 13.716054,12.932282 5.62837,5.62836 11.10962,11.301 16.85116,16.85116 1.86826,1.80599 6.16744,7.80349 8.62152,8.62152 2.42005,0.80668 4.45304,2.22652 7.05397,3.52698"
       style="fill:#000000;fill-rule:nonzero;stroke:none" />
  </g>
</svg>
